# xmcd
#
# Track frame offsets: 
#        150
#        13837
#        28292
#        41845
#        55932
#        68960
#        83270
#        97190
#        111357
#        127087
#        141290
#        155277
#        169632
#        183947
#        198080
#        212227
#        225940
#        240117
#
# Disc length: 3384 seconds
#
# Revision: 7
# Processed by: cddbd v1.5.2PL0 Copyright (c) Steve Scherf et al.
# Submitted via: ExactAudioCopyFreeDBPlugin 1.0
#
DISCID=f00d3612
DTITLE=Charley Patton - Complete Recordings, 1929-1934
DYEAR=2002
DGENRE=Blues
TTITLE0=Pony Blues
TTITLE1=A Spoonful Blues
TTITLE2=Down the Dirt Road Blues
TTITLE3=Prayer of Death, Part 1
TTITLE4=Prayer 0f Death, Part 2
TTITLE5=Screamin' and Hollerin' the Blues
TTITLE6=Banty Rooster Blues
TTITLE7=Tom Rushen Blues
TTITLE8=It Won't Be Long
TTITLE9=Shake it and Break it (But Don't Let it Fall, Mama)
TTITLE10=Pea Vine Blues
TTITLE11=Mississippi Boweavil Blues
TTITLE12=Lord I'm Discouraged
TTITLE13=I'm Goin' Home
TTITLE14=Walter Hawkins - Snatch it and Grab It (possibly ft Charley P
TTITLE14=atton as second vocalist)
TTITLE15=Walter Hawkins - A Rag Blues
TTITLE16=Walter Hawkins - How Come Mama Blues
TTITLE17=Walter Hawkins - Voice Throwin' Blues
EXTD=Tracks 1-14, Charley Patton, June 1929\nTracks 15-18, Walter Hawk
EXTD=ins YEAR: 2002 ID3G: 0
EXTT0=Charley Patton, 1929 (tracks 1-14)
EXTT1=
EXTT2=
EXTT3=
EXTT4=
EXTT5=
EXTT6=
EXTT7=
EXTT8=
EXTT9=
EXTT10=
EXTT11=
EXTT12=
EXTT13=
EXTT14=Walter Hawkins (tracks 15-18)
EXTT15=
EXTT16=
EXTT17=
PLAYORDER=
